<svg xmlns="http://www.w3.org/2000/svg" viewBox="0 0 171 144"><defs><style>.cls-1{fill:#d1d95f}.cls-2{fill:#c0c757}.cls-3{fill:#d5d99c}.cls-4{fill:#9da600}.cls-5{fill:#cccccf}.cls-6{fill:#0e70ad}.cls-7{fill:#0092ff}.cls-8{fill:#56b9e1}</style></defs><title>lodkaРесурс 3</title><g id="lodka" data-name="lodka"><g id="l" data-name="l"><polygon points="108 0 108 9 99 9 99 18 90 18 90 0 108 0" class="cls-1"/><rect width="9" height="18" x="90" y="18" class="cls-2"/><rect width="9" height="18" x="90" y="36" class="cls-1"/><polygon points="90 36 90 54 81 54 81 63 72 63 72 36 90 36" class="cls-2"/><rect width="9" height="18" x="99" y="36" class="cls-3"/><rect width="9" height="18" x="108" y="36" class="cls-1"/><rect width="27" height="9" x="90" y="54" class="cls-2"/><rect width="9" height="9" x="81" y="54" class="cls-4"/><rect width="9" height="9" x="135" y="63" class="cls-5"/><rect width="18" height="9" x="144" y="63" class="cls-6"/><polygon points="135 63 135 72 126 72 126 81 108 81 108 90 99 90 99 81 81 81 81 90 72 90 72 81 54 81 54 99 63 99 63 90 72 90 72 108 36 108 36 72 45 72 45 63 135 63" class="cls-1"/><rect width="9" height="36" x="126" y="72" class="cls-5"/><polygon points="162 81 162 108 153 108 153 90 135 90 135 72 153 72 153 81 162 81" class="cls-7"/><rect width="9" height="9" x="153" y="72" class="cls-8"/><rect width="9" height="36" x="162" y="72" class="cls-6"/><polygon points="72 81 72 90 63 90 63 99 54 99 54 81 72 81" class="cls-3"/><polygon points="126 81 126 99 117 99 117 90 108 90 108 81 126 81" class="cls-3"/><rect width="18" height="9" x="81" y="81" class="cls-5"/><polygon points="126 99 126 108 108 108 108 90 117 90 117 99 126 99" class="cls-1"/><rect width="18" height="18" x="135" y="90" class="cls-6"/><polygon points="99 99 99 108 81 108 81 90 90 90 90 99 99 99" class="cls-6"/><rect width="9" height="18" x="72" y="90" class="cls-5"/><rect width="9" height="9" x="90" y="90" class="cls-8"/><rect width="9" height="18" x="99" y="90" class="cls-5"/><polygon points="153 117 153 126 45 126 45 117 36 117 36 108 81 108 81 117 99 117 99 108 135 108 135 117 153 117" class="cls-2"/><rect width="36" height="9" x="135" y="108" class="cls-5"/><rect width="18" height="9" x="81" y="108" class="cls-5"/><rect width="9" height="18" x="27" y="81" class="cls-2"/><polygon points="171 117 171 126 162 126 162 135 153 135 153 144 45 144 45 135 36 135 36 126 27 126 27 99 36 99 36 117 45 117 45 126 153 126 153 117 171 117" class="cls-4"/><rect width="18" height="9" x="9" y="72" class="cls-1"/><rect width="18" height="9" x="9" y="81" class="cls-3"/><rect width="18" height="18" x="9" y="90" class="cls-1"/><rect width="9" height="9" y="90" class="cls-2"/><rect width="9" height="18" y="99" class="cls-4"/><rect width="18" height="27" x="9" y="108" class="cls-2"/></g></g></svg>